<svg width="1200" height="630" viewBox="0 0 1200 630" xmlns="http://www.w3.org/2000/svg">
  <defs>
    <!-- Gradient definitions -->
    <linearGradient id="bgGradient" x1="0%" y1="0%" x2="100%" y2="100%">
      <stop offset="0%" style="stop-color:#667eea;stop-opacity:1" />
      <stop offset="50%" style="stop-color:#764ba2;stop-opacity:1" />
      <stop offset="100%" style="stop-color:#5b47d6;stop-opacity:1" />
    </linearGradient>
    
    <linearGradient id="aiGradient" x1="0%" y1="0%" x2="100%" y2="100%">
      <stop offset="0%" style="stop-color:#00d4ff;stop-opacity:1" />
      <stop offset="100%" style="stop-color:#5b47d6;stop-opacity:1" />
    </linearGradient>
    
    <linearGradient id="certGradient" x1="0%" y1="0%" x2="100%" y2="100%">
      <stop offset="0%" style="stop-color:#ffd700;stop-opacity:1" />
      <stop offset="100%" style="stop-color:#ffb700;stop-opacity:1" />
    </linearGradient>
    
    <linearGradient id="nodeGradient" x1="0%" y1="0%" x2="100%" y2="100%">
      <stop offset="0%" style="stop-color:#ffffff;stop-opacity:0.9" />
      <stop offset="100%" style="stop-color:#e3f2fd;stop-opacity:0.8" />
    </linearGradient>
    
    <!-- Glow filter -->
    <filter id="glow">
      <feGaussianBlur stdDeviation="4" result="coloredBlur"/>
      <feMerge> 
        <feMergeNode in="coloredBlur"/>
        <feMergeNode in="SourceGraphic"/>
      </feMerge>
    </filter>
    
    <!-- Drop shadow filter -->
    <filter id="dropshadow" x="-20%" y="-20%" width="140%" height="140%">
      <feGaussianBlur in="SourceAlpha" stdDeviation="3"/>
      <feOffset dx="2" dy="2" result="offset"/>
      <feComponentTransfer>
        <feFuncA type="linear" slope="0.4"/>
      </feComponentTransfer>
      <feMerge> 
        <feMergeNode/>
        <feMergeNode in="SourceGraphic"/>
      </feMerge>
    </filter>
    
    <!-- Pattern for AI network -->
    <pattern id="networkPattern" x="0" y="0" width="60" height="60" patternUnits="userSpaceOnUse">
      <circle cx="30" cy="30" r="2" fill="rgba(255,255,255,0.3)"/>
    </pattern>
  </defs>
  
  <!-- Background -->
  <rect width="1200" height="630" fill="url(#bgGradient)"/>
  
  <!-- Network pattern overlay -->
  <g opacity="0.1">
    <rect width="1200" height="630" fill="url(#networkPattern)"/>
  </g>
  
  <!-- AI Brain/Network visualization (left side) -->
  <g transform="translate(100, 150)">
    <!-- Central brain/AI core -->
    <circle cx="100" cy="150" r="60" fill="url(#aiGradient)" filter="url(#glow)" opacity="0.8"/>
    
    <!-- Inner neural network pattern -->
    <g transform="translate(100, 150)" opacity="0.9">
      <!-- Central core -->
      <circle cx="0" cy="0" r="25" fill="white" opacity="0.3"/>
      <circle cx="0" cy="0" r="15" fill="url(#aiGradient)"/>
      <circle cx="0" cy="0" r="8" fill="white"/>
      
      <!-- Neural connections -->
      <g stroke="white" stroke-width="2" opacity="0.7" fill="none">
        <path d="M -15 0 Q -25 -15 -35 -10"/>
        <path d="M 15 0 Q 25 -15 35 -10"/>
        <path d="M 0 -15 Q -15 -25 -10 -35"/>
        <path d="M 0 15 Q 15 25 10 35"/>
        <path d="M -10 -10 Q -20 -20 -30 -15"/>
        <path d="M 10 10 Q 20 20 30 15"/>
      </g>
      
      <!-- Neural nodes -->
      <g fill="#00d4ff" opacity="0.8">
        <circle cx="-35" cy="-10" r="4"/>
        <circle cx="35" cy="-10" r="4"/>
        <circle cx="-10" cy="-35" r="4"/>
        <circle cx="10" cy="35" r="4"/>
        <circle cx="-30" cy="-15" r="3"/>
        <circle cx="30" cy="15" r="3"/>
      </g>
    </g>
    
    <!-- Orbiting elements representing AI services -->
    <g transform="translate(100, 150)">
      <!-- Computer Vision -->
      <g transform="translate(-80, -40)">
        <rect x="-8" y="-8" width="16" height="16" rx="3" fill="url(#nodeGradient)" filter="url(#dropshadow)"/>
        <text x="0" y="3" font-family="Arial" font-size="10" text-anchor="middle" fill="#5b47d6">👁️</text>
        <text x="0" y="-15" font-family="Segoe UI" font-size="8" text-anchor="middle" fill="white" opacity="0.8">Vision</text>
      </g>
      
      <!-- Natural Language Processing -->
      <g transform="translate(80, -40)">
        <rect x="-8" y="-8" width="16" height="16" rx="3" fill="url(#nodeGradient)" filter="url(#dropshadow)"/>
        <text x="0" y="3" font-family="Arial" font-size="10" text-anchor="middle" fill="#5b47d6">💬</text>
        <text x="0" y="-15" font-family="Segoe UI" font-size="8" text-anchor="middle" fill="white" opacity="0.8">Language</text>
      </g>
      
      <!-- Machine Learning -->
      <g transform="translate(-80, 60)">
        <rect x="-8" y="-8" width="16" height="16" rx="3" fill="url(#nodeGradient)" filter="url(#dropshadow)"/>
        <text x="0" y="3" font-family="Arial" font-size="10" text-anchor="middle" fill="#5b47d6">🤖</text>
        <text x="0" y="20" font-family="Segoe UI" font-size="8" text-anchor="middle" fill="white" opacity="0.8">ML</text>
      </g>
      
      <!-- Conversational AI -->
      <g transform="translate(80, 60)">
        <rect x="-8" y="-8" width="16" height="16" rx="3" fill="url(#nodeGradient)" filter="url(#dropshadow)"/>
        <text x="0" y="3" font-family="Arial" font-size="10" text-anchor="middle" fill="#5b47d6">🗣️</text>
        <text x="0" y="20" font-family="Segoe UI" font-size="8" text-anchor="middle" fill="white" opacity="0.8">Chat</text>
      </g>
    </g>
    
    <!-- Connection lines to AI services -->
    <g stroke="#00d4ff" stroke-width="1" opacity="0.6" fill="none">
      <path d="M 70 130 L 20 110"/>
      <path d="M 130 130 L 180 110"/>
      <path d="M 70 170 L 20 210"/>
      <path d="M 130 170 L 180 210"/>
    </g>
  </g>
  
  <!-- Certification badge (center) -->
  <g transform="translate(400, 200)">
    <!-- Badge background -->
    <circle cx="100" cy="100" r="80" fill="url(#certGradient)" filter="url(#dropshadow)"/>
    <circle cx="100" cy="100" r="65" fill="white" opacity="0.2"/>
    
    <!-- Microsoft logo style -->
    <g transform="translate(100, 100)">
      <!-- Four squares representing Microsoft logo -->
      <rect x="-15" y="-15" width="12" height="12" fill="white"/>
      <rect x="3" y="-15" width="12" height="12" fill="white"/>
      <rect x="-15" y="3" width="12" height="12" fill="white"/>
      <rect x="3" y="3" width="12" height="12" fill="white"/>
    </g>
    
    <!-- AI-900 text -->
    <text x="100" y="140" font-family="Segoe UI, Arial, sans-serif" font-size="24" font-weight="bold" 
          text-anchor="middle" fill="white" filter="url(#dropshadow)">AI-900</text>
    
    <!-- Badge decorative elements -->
    <g transform="translate(100, 100)" stroke="white" stroke-width="2" fill="none" opacity="0.6">
      <circle cx="0" cy="0" r="90"/>
      <circle cx="0" cy="0" r="95"/>
    </g>
  </g>
  
  <!-- Title and content (right side) -->
  <g transform="translate(650, 100)">
    <text x="0" y="0" font-family="Segoe UI, Arial, sans-serif" font-size="48" font-weight="bold" fill="white" filter="url(#dropshadow)">
      AI-900
    </text>
    <text x="0" y="50" font-family="Segoe UI, Arial, sans-serif" font-size="32" font-weight="300" fill="#e3f2fd">
      Certification Guide
    </text>
    
    <!-- Subtitle -->
    <text x="0" y="100" font-family="Segoe UI, Arial, sans-serif" font-size="20" fill="#b3e5fc">
      Azure AI Fundamentals
    </text>
    
    <!-- Key features -->
    <g transform="translate(0, 140)" font-family="Segoe UI, Arial, sans-serif" font-size="16" fill="#e1f5fe">
      <text x="0" y="20">✓ Complete study strategy</text>
      <text x="0" y="45">✓ Hands-on practice tips</text>
      <text x="0" y="70">✓ Real-world Azure experience</text>
      <text x="0" y="95">✓ Exam day success guide</text>
    </g>
    
    <!-- Microsoft experience badge -->
    <g transform="translate(0, 280)">
      <rect x="0" y="0" width="200" height="35" rx="17" fill="rgba(255,255,255,0.2)" stroke="white" stroke-width="1"/>
      <text x="100" y="23" font-family="Segoe UI, Arial, sans-serif" font-size="12" font-weight="bold" 
            text-anchor="middle" fill="white">MICROSOFT EXPERIENCE</text>
    </g>
  </g>
  
  <!-- Azure services icons (bottom) -->
  <g transform="translate(100, 450)">
    <!-- Cognitive Services -->
    <g transform="translate(0, 0)">
      <rect x="0" y="0" width="40" height="40" rx="8" fill="rgba(255,255,255,0.1)" stroke="white" stroke-width="1"/>
      <text x="20" y="28" font-family="Arial" font-size="20" text-anchor="middle" fill="white">🧠</text>
      <text x="20" y="55" font-family="Segoe UI" font-size="10" text-anchor="middle" fill="white" opacity="0.8">Cognitive</text>
    </g>
    
    <!-- Bot Service -->
    <g transform="translate(80, 0)">
      <rect x="0" y="0" width="40" height="40" rx="8" fill="rgba(255,255,255,0.1)" stroke="white" stroke-width="1"/>
      <text x="20" y="28" font-family="Arial" font-size="20" text-anchor="middle" fill="white">🤖</text>
      <text x="20" y="55" font-family="Segoe UI" font-size="10" text-anchor="middle" fill="white" opacity="0.8">Bot Service</text>
    </g>
    
    <!-- Machine Learning -->
    <g transform="translate(160, 0)">
      <rect x="0" y="0" width="40" height="40" rx="8" fill="rgba(255,255,255,0.1)" stroke="white" stroke-width="1"/>
      <text x="20" y="28" font-family="Arial" font-size="20" text-anchor="middle" fill="white">⚙️</text>
      <text x="20" y="55" font-family="Segoe UI" font-size="10" text-anchor="middle" fill="white" opacity="0.8">ML Studio</text>
    </g>
    
    <!-- Knowledge Mining -->
    <g transform="translate(240, 0)">
      <rect x="0" y="0" width="40" height="40" rx="8" fill="rgba(255,255,255,0.1)" stroke="white" stroke-width="1"/>
      <text x="20" y="28" font-family="Arial" font-size="20" text-anchor="middle" fill="white">🔍</text>
      <text x="20" y="55" font-family="Segoe UI" font-size="10" text-anchor="middle" fill="white" opacity="0.8">Search</text>
    </g>
  </g>
  
  <!-- Data flow connections -->
  <g opacity="0.4">
    <defs>
      <marker id="arrowhead" markerWidth="10" markerHeight="7" 
              refX="0" refY="3.5" orient="auto">
        <polygon points="0 0, 10 3.5, 0 7" fill="#00d4ff"/>
      </marker>
    </defs>
    
    <!-- Flow arrows -->
    <path d="M 300 300 Q 350 280 400 300" stroke="#00d4ff" stroke-width="2" fill="none" 
          marker-end="url(#arrowhead)" opacity="0.6"/>
    <path d="M 580 300 Q 630 280 680 300" stroke="#00d4ff" stroke-width="2" fill="none" 
          marker-end="url(#arrowhead)" opacity="0.6"/>
  </g>
  
  <!-- Floating AI elements -->
  <g opacity="0.3">
    <!-- Neural network nodes -->
    <circle cx="950" cy="450" r="8" fill="rgba(255,255,255,0.5)" stroke="#00d4ff" stroke-width="2"/>
    <circle cx="1050" cy="400" r="6" fill="rgba(255,255,255,0.5)" stroke="#00d4ff" stroke-width="2"/>
    <circle cx="900" cy="500" r="5" fill="rgba(255,255,255,0.5)" stroke="#00d4ff" stroke-width="2"/>
    
    <!-- Connection lines -->
    <g stroke="#00d4ff" stroke-width="1" opacity="0.5">
      <line x1="950" y1="450" x2="1050" y2="400"/>
      <line x1="950" y1="450" x2="900" y2="500"/>
      <line x1="1050" y1="400" x2="900" y2="500"/>
    </g>
  </g>
  
  <!-- Background decorative circles -->
  <g opacity="0.1">
    <circle cx="1100" cy="150" r="50" fill="white"/>
    <circle cx="150" cy="550" r="30" fill="white"/>
    <circle cx="1000" cy="550" r="40" fill="white"/>
  </g>
  
  <!-- Certification level badge -->
  <g transform="translate(50, 50)">
    <rect x="0" y="0" width="120" height="35" rx="17" fill="#00ff88" opacity="0.9"/>
    <text x="60" y="23" font-family="Segoe UI, Arial, sans-serif" font-size="14" font-weight="bold" 
          text-anchor="middle" fill="white">FUNDAMENTALS</text>
  </g>
  
  <!-- Pass guarantee badge -->
  <g transform="translate(1020, 50)">
    <rect x="0" y="0" width="130" height="35" rx="17" fill="rgba(255,215,0,0.9)"/>
    <text x="65" y="23" font-family="Segoe UI, Arial, sans-serif" font-size="14" font-weight="bold" 
          text-anchor="middle" fill="#5b47d6">STUDY GUIDE</text>
  </g>
  
  <!-- Azure cloud representation -->
  <g transform="translate(800, 450)" opacity="0.4">
    <path d="M 0 20 Q -10 10 0 10 Q 10 5 20 10 Q 30 8 35 15 Q 40 20 30 25 Q 10 30 0 20 Z" 
          fill="rgba(255,255,255,0.6)" stroke="white" stroke-width="1"/>
    <text x="17.5" y="35" font-family="Segoe UI" font-size="8" text-anchor="middle" fill="white">Azure</text>
  </g>
</svg>
