<svg width="1200" height="630" viewBox="0 0 1200 630" xmlns="http://www.w3.org/2000/svg">
  <defs>
    <!-- Gradient definitions -->
    <linearGradient id="bgGradient" x1="0%" y1="0%" x2="100%" y2="100%">
      <stop offset="0%" style="stop-color:#0078d4;stop-opacity:1" />
      <stop offset="50%" style="stop-color:#005a9e;stop-opacity:1" />
      <stop offset="100%" style="stop-color:#003d6b;stop-opacity:1" />
    </linearGradient>
    
    <linearGradient id="shieldGradient" x1="0%" y1="0%" x2="100%" y2="100%">
      <stop offset="0%" style="stop-color:#40e0d0;stop-opacity:1" />
      <stop offset="100%" style="stop-color:#0078d4;stop-opacity:1" />
    </linearGradient>
    
    <linearGradient id="cloudGradient" x1="0%" y1="0%" x2="100%" y2="100%">
      <stop offset="0%" style="stop-color:#ffffff;stop-opacity:0.9" />
      <stop offset="100%" style="stop-color:#e3f2fd;stop-opacity:0.8" />
    </linearGradient>
    
    <!-- Glow filter -->
    <filter id="glow">
      <feGaussianBlur stdDeviation="3" result="coloredBlur"/>
      <feMerge> 
        <feMergeNode in="coloredBlur"/>
        <feMergeNode in="SourceGraphic"/>
      </feMerge>
    </filter>
    
    <!-- Drop shadow filter -->
    <filter id="dropshadow" x="-20%" y="-20%" width="140%" height="140%">
      <feGaussianBlur in="SourceAlpha" stdDeviation="3"/>
      <feOffset dx="2" dy="2" result="offset"/>
      <feComponentTransfer>
        <feFuncA type="linear" slope="0.3"/>
      </feComponentTransfer>
      <feMerge> 
        <feMergeNode/>
        <feMergeNode in="SourceGraphic"/>
      </feMerge>
    </filter>
  </defs>
  
  <!-- Background -->
  <rect width="1200" height="630" fill="url(#bgGradient)"/>
  
  <!-- Decorative background pattern -->
  <g opacity="0.1">
    <!-- Grid pattern -->
    <defs>
      <pattern id="grid" width="40" height="40" patternUnits="userSpaceOnUse">
        <path d="M 40 0 L 0 0 0 40" fill="none" stroke="white" stroke-width="1"/>
      </pattern>
    </defs>
    <rect width="1200" height="630" fill="url(#grid)"/>
  </g>
  
  <!-- Cloud infrastructure background elements -->
  <g opacity="0.3">
    <!-- Large cloud -->
    <path d="M 150 150 Q 120 120 160 120 Q 200 100 240 120 Q 280 110 300 140 Q 320 160 280 170 Q 200 180 150 150 Z" 
          fill="url(#cloudGradient)" filter="url(#dropshadow)"/>
    
    <!-- Medium cloud -->
    <path d="M 900 120 Q 880 100 910 100 Q 940 85 970 100 Q 1000 95 1015 115 Q 1030 130 1000 135 Q 940 140 900 120 Z" 
          fill="url(#cloudGradient)" filter="url(#dropshadow)"/>
    
    <!-- Small cloud -->
    <path d="M 1050 400 Q 1035 385 1055 385 Q 1075 375 1095 385 Q 1115 380 1125 395 Q 1135 405 1115 410 Q 1075 415 1050 400 Z" 
          fill="url(#cloudGradient)" filter="url(#dropshadow)"/>
  </g>
  
  <!-- Central shield icon (Azure Sentinel logo concept) -->
  <g transform="translate(200, 200)">
    <!-- Shield outline -->
    <path d="M 100 0 L 180 30 L 180 120 Q 180 160 140 180 L 100 200 L 60 180 Q 20 160 20 120 L 20 30 Z" 
          fill="url(#shieldGradient)" 
          stroke="white" 
          stroke-width="3" 
          filter="url(#glow)"/>
    
    <!-- Inner shield design -->
    <g transform="translate(100, 100)">
      <!-- Center eye/sentinel symbol -->
      <circle cx="0" cy="-20" r="25" fill="white" opacity="0.9"/>
      <circle cx="0" cy="-20" r="15" fill="#0078d4"/>
      <circle cx="0" cy="-20" r="8" fill="white"/>
      
      <!-- Radar/scanning lines -->
      <g stroke="white" stroke-width="2" opacity="0.7" fill="none">
        <path d="M -40 -20 A 40 40 0 0 1 40 -20"/>
        <path d="M -30 -20 A 30 30 0 0 1 30 -20"/>
        <path d="M -20 -20 A 20 20 0 0 1 20 -20"/>
      </g>
      
      <!-- Detection signals -->
      <g stroke="#40e0d0" stroke-width="2" opacity="0.8" fill="none">
        <circle cx="-35" cy="20" r="3"/>
        <circle cx="25" cy="15" r="3"/>
        <circle cx="0" cy="40" r="3"/>
        <circle cx="-20" cy="35" r="3"/>
        
        <!-- Connection lines -->
        <path d="M -35 20 L 0 -12"/>
        <path d="M 25 15 L 0 -12"/>
        <path d="M 0 40 L 0 -12"/>
        <path d="M -20 35 L 0 -12"/>
      </g>
    </g>
  </g>
  
  <!-- Data flow visualization -->
  <g opacity="0.6">
    <!-- Data sources (left side) -->
    <g transform="translate(50, 350)">
      <!-- Server icons -->
      <rect x="0" y="0" width="30" height="40" rx="5" fill="white" opacity="0.8"/>
      <rect x="5" y="5" width="20" height="3" fill="#0078d4"/>
      <rect x="5" y="12" width="20" height="3" fill="#0078d4"/>
      <rect x="5" y="19" width="20" height="3" fill="#0078d4"/>
      
      <rect x="0" y="50" width="30" height="40" rx="5" fill="white" opacity="0.8"/>
      <rect x="5" y="55" width="20" height="3" fill="#0078d4"/>
      <rect x="5" y="62" width="20" height="3" fill="#0078d4"/>
      <rect x="5" y="69" width="20" height="3" fill="#0078d4"/>
      
      <rect x="0" y="100" width="30" height="40" rx="5" fill="white" opacity="0.8"/>
      <rect x="5" y="105" width="20" height="3" fill="#0078d4"/>
      <rect x="5" y="112" width="20" height="3" fill="#0078d4"/>
      <rect x="5" y="119" width="20" height="3" fill="#0078d4"/>
    </g>
    
    <!-- Data flow arrows -->
    <g stroke="#40e0d0" stroke-width="3" fill="none" opacity="0.7">
      <path d="M 100 370 L 180 300" marker-end="url(#arrowhead)"/>
      <path d="M 100 400 L 180 320" marker-end="url(#arrowhead)"/>
      <path d="M 100 430 L 180 340" marker-end="url(#arrowhead)"/>
    </g>
    
    <!-- Arrow marker definition -->
    <defs>
      <marker id="arrowhead" markerWidth="10" markerHeight="7" 
              refX="0" refY="3.5" orient="auto">
        <polygon points="0 0, 10 3.5, 0 7" fill="#40e0d0"/>
      </marker>
    </defs>
  </g>
  
  <!-- Analytics and insights (right side) -->
  <g transform="translate(450, 280)">
    <!-- Dashboard/chart representation -->
    <rect x="0" y="0" width="200" height="120" rx="10" fill="white" opacity="0.9" filter="url(#dropshadow)"/>
    
    <!-- Chart bars -->
    <g fill="#0078d4">
      <rect x="20" y="80" width="15" height="25"/>
      <rect x="40" y="70" width="15" height="35"/>
      <rect x="60" y="85" width="15" height="20"/>
      <rect x="80" y="60" width="15" height="45"/>
      <rect x="100" y="75" width="15" height="30"/>
    </g>
    
    <!-- Trend line -->
    <path d="M 25 85 L 45 75 L 65 90 L 85 65 L 105 80" 
          stroke="#40e0d0" stroke-width="3" fill="none"/>
    
    <!-- Alert indicators -->
    <circle cx="160" cy="30" r="8" fill="#ff4444"/>
    <circle cx="175" cy="45" r="8" fill="#ffa500"/>
    <circle cx="160" cy="60" r="8" fill="#00ff00"/>
  </g>
  
  <!-- Title text -->
  <g transform="translate(600, 100)">
    <text x="0" y="0" font-family="Segoe UI, Arial, sans-serif" font-size="48" font-weight="bold" fill="white" filter="url(#dropshadow)">
      Azure Sentinel
    </text>
    <text x="0" y="50" font-family="Segoe UI, Arial, sans-serif" font-size="32" font-weight="300" fill="#e3f2fd">
      for Beginners
    </text>
    
    <!-- Subtitle -->
    <text x="0" y="100" font-family="Segoe UI, Arial, sans-serif" font-size="20" fill="#b3e5fc">
      Your Complete Guide to Cloud-Native SIEM
    </text>
    
    <!-- Key points -->
    <g transform="translate(0, 140)" font-family="Segoe UI, Arial, sans-serif" font-size="16" fill="#e1f5fe">
      <text x="0" y="20">✓ Easy to understand concepts</text>
      <text x="0" y="45">✓ Hands-on KQL examples</text>
      <text x="0" y="70">✓ Best practices included</text>
      <text x="0" y="95">✓ Step-by-step tutorials</text>
    </g>
  </g>
  
  <!-- Beginner-friendly badges -->
  <g transform="translate(50, 50)">
    <!-- "Beginner Friendly" badge -->
    <rect x="0" y="0" width="140" height="35" rx="17" fill="#00ff88" opacity="0.9"/>
    <text x="70" y="23" font-family="Segoe UI, Arial, sans-serif" font-size="14" font-weight="bold" 
          text-anchor="middle" fill="white">BEGINNER FRIENDLY</text>
  </g>
  
  <g transform="translate(980, 50)">
    <!-- "Cloud Native" badge -->
    <rect x="0" y="0" width="120" height="35" rx="17" fill="#40e0d0" opacity="0.9"/>
    <text x="60" y="23" font-family="Segoe UI, Arial, sans-serif" font-size="14" font-weight="bold" 
          text-anchor="middle" fill="white">CLOUD NATIVE</text>
  </g>
  
  <!-- Decorative elements -->
  <g opacity="0.3">
    <!-- Security lock icons -->
    <g transform="translate(900, 400)">
      <rect x="0" y="10" width="20" height="15" rx="2" fill="white"/>
      <path d="M 5 10 Q 5 5 10 5 Q 15 5 15 10" stroke="white" stroke-width="2" fill="none"/>
      <circle cx="10" cy="17" r="2" fill="#0078d4"/>
    </g>
    
    <g transform="translate(150, 500)">
      <rect x="0" y="10" width="15" height="12" rx="2" fill="white"/>
      <path d="M 3 10 Q 3 6 7.5 6 Q 12 6 12 10" stroke="white" stroke-width="1.5" fill="none"/>
      <circle cx="7.5" cy="16" r="1.5" fill="#0078d4"/>
    </g>
  </g>
  
  <!-- Network connections visualization -->
  <g opacity="0.4" stroke="#40e0d0" stroke-width="1" fill="none">
    <path d="M 100 500 Q 300 450 500 480"/>
    <path d="M 150 520 Q 350 470 550 500"/>
    <path d="M 200 540 Q 400 490 600 520"/>
    
    <!-- Connection nodes -->
    <circle cx="100" cy="500" r="3" fill="#40e0d0"/>
    <circle cx="300" cy="465" r="2" fill="#40e0d0"/>
    <circle cx="500" cy="480" r="3" fill="#40e0d0"/>
    <circle cx="150" cy="520" r="3" fill="#40e0d0"/>
    <circle cx="350" cy="485" r="2" fill="#40e0d0"/>
    <circle cx="550" cy="500" r="3" fill="#40e0d0"/>
  </g>
</svg>
