<?xml version="1.0" encoding="UTF-8"?>
<svg width="1200" height="630" xmlns="http://www.w3.org/2000/svg">
  <!-- Background Gradient -->
  <defs>
    <linearGradient id="bgGradient" x1="0%" y1="0%" x2="100%" y2="100%">
      <stop offset="0%" style="stop-color:#0f1419;stop-opacity:1" />
      <stop offset="50%" style="stop-color:#1a237e;stop-opacity:1" />
      <stop offset="100%" style="stop-color:#0d47a1;stop-opacity:1" />
    </linearGradient>
    
    <!-- Glow Effect -->
    <filter id="glow">
      <feGaussianBlur stdDeviation="3" result="coloredBlur"/>
      <feMerge> 
        <feMergeNode in="coloredBlur"/>
        <feMergeNode in="SourceGraphic"/>
      </feMerge>
    </filter>
    
    <!-- Drop Shadow -->
    <filter id="dropshadow" x="-20%" y="-20%" width="140%" height="140%">
      <feDropShadow dx="2" dy="2" stdDeviation="3" flood-color="#000000" flood-opacity="0.3"/>
    </filter>
  </defs>
  
  <!-- Background -->
  <rect width="100%" height="100%" fill="url(#bgGradient)"/>
  
  <!-- Grid Pattern Overlay -->
  <pattern id="grid" width="40" height="40" patternUnits="userSpaceOnUse">
    <path d="M 40 0 L 0 0 0 40" fill="none" stroke="#ffffff" stroke-width="0.5" opacity="0.1"/>
  </pattern>
  <rect width="100%" height="100%" fill="url(#grid)"/>
  
  <!-- Main Title -->
  <text x="600" y="150" text-anchor="middle" font-family="Segoe UI, Arial, sans-serif" font-size="48" font-weight="bold" fill="#ffffff" filter="url(#dropshadow)">
    Security Monitoring Dashboard
  </text>
  
  <!-- Subtitle -->
  <text x="600" y="190" text-anchor="middle" font-family="Segoe UI, Arial, sans-serif" font-size="24" fill="#64b5f6">
    Azure Sentinel + Power BI Integration
  </text>
  
  <!-- Left Side - Azure Sentinel Icon and Features -->
  <g transform="translate(100, 250)">
    <!-- Azure Sentinel Shield -->
    <g filter="url(#glow)">
      <path d="M 60 20 L 100 40 L 100 100 L 60 120 L 20 100 L 20 40 Z" fill="#00b4d8" stroke="#0077be" stroke-width="2"/>
      <circle cx="60" cy="70" r="25" fill="#ffffff" opacity="0.9"/>
      <path d="M 50 60 L 58 68 L 70 56" stroke="#00b4d8" stroke-width="3" fill="none" stroke-linecap="round"/>
    </g>
    
    <!-- Features List -->
    <text x="140" y="45" font-family="Segoe UI, Arial, sans-serif" font-size="18" font-weight="600" fill="#ffffff">Azure Sentinel</text>
    <text x="140" y="70" font-family="Segoe UI, Arial, sans-serif" font-size="14" fill="#e3f2fd">• Log Analytics</text>
    <text x="140" y="90" font-family="Segoe UI, Arial, sans-serif" font-size="14" fill="#e3f2fd">• Threat Intelligence</text>
    <text x="140" y="110" font-family="Segoe UI, Arial, sans-serif" font-size="14" fill="#e3f2fd">• Security Orchestration</text>
  </g>
  
  <!-- Right Side - Power BI Icon and Features -->
  <g transform="translate(700, 250)">
    <!-- Power BI Chart Icon -->
    <g filter="url(#glow)">
      <rect x="20" y="40" width="80" height="80" rx="8" fill="#f2c811" stroke="#d4a004" stroke-width="2"/>
      <!-- Chart bars -->
      <rect x="30" y="90" width="8" height="20" fill="#ffffff"/>
      <rect x="42" y="80" width="8" height="30" fill="#ffffff"/>
      <rect x="54" y="70" width="8" height="40" fill="#ffffff"/>
      <rect x="66" y="85" width="8" height="25" fill="#ffffff"/>
      <rect x="78" y="60" width="8" height="50" fill="#ffffff"/>
    </g>
    
    <!-- Features List -->
    <text x="140" y="45" font-family="Segoe UI, Arial, sans-serif" font-size="18" font-weight="600" fill="#ffffff">Power BI</text>
    <text x="140" y="70" font-family="Segoe UI, Arial, sans-serif" font-size="14" fill="#fff3e0">• Real-time Dashboards</text>
    <text x="140" y="90" font-family="Segoe UI, Arial, sans-serif" font-size="14" fill="#fff3e0">• Interactive Reports</text>
    <text x="140" y="110" font-family="Segoe UI, Arial, sans-serif" font-size="14" fill="#fff3e0">• Mobile Access</text>
  </g>
  
  <!-- Center Connection Arrow -->
  <g transform="translate(500, 290)">
    <line x1="0" y1="0" x2="100" y2="0" stroke="#4fc3f7" stroke-width="4" marker-end="url(#arrowhead)"/>
    <text x="50" y="-10" text-anchor="middle" font-family="Segoe UI, Arial, sans-serif" font-size="12" fill="#4fc3f7">Integration</text>
  </g>
  
  <!-- Arrow marker -->
  <defs>
    <marker id="arrowhead" markerWidth="10" markerHeight="7" refX="9" refY="3.5" orient="auto">
      <polygon points="0 0, 10 3.5, 0 7" fill="#4fc3f7"/>
    </marker>
  </defs>
  
  <!-- Bottom Dashboard Preview -->
  <g transform="translate(300, 400)">
    <!-- Dashboard Frame -->
    <rect x="0" y="0" width="600" height="180" rx="12" fill="#1e1e1e" stroke="#444444" stroke-width="2" filter="url(#dropshadow)"/>
    
    <!-- Dashboard Header -->
    <rect x="10" y="10" width="580" height="30" rx="4" fill="#2d2d2d"/>
    <text x="300" y="28" text-anchor="middle" font-family="Segoe UI, Arial, sans-serif" font-size="14" font-weight="600" fill="#ffffff">Security Operations Dashboard</text>
    
    <!-- Mock Chart Elements -->
    <!-- Gauge Chart -->
    <circle cx="100" cy="100" r="35" fill="none" stroke="#333333" stroke-width="6"/>
    <circle cx="100" cy="100" r="35" fill="none" stroke="#4caf50" stroke-width="6" stroke-dasharray="110 220" transform="rotate(-90 100 100)"/>
    <text x="100" y="105" text-anchor="middle" font-family="Segoe UI, Arial, sans-serif" font-size="12" fill="#4caf50" font-weight="600">92%</text>
    <text x="100" y="140" text-anchor="middle" font-family="Segoe UI, Arial, sans-serif" font-size="10" fill="#cccccc">Security Score</text>
    
    <!-- Bar Chart -->
    <g transform="translate(200, 60)">
      <rect x="0" y="60" width="15" height="20" fill="#ff5722"/>
      <rect x="20" y="45" width="15" height="35" fill="#ff9800"/>
      <rect x="40" y="70" width="15" height="10" fill="#ffc107"/>
      <rect x="60" y="30" width="15" height="50" fill="#4caf50"/>
      <text x="37" y="100" text-anchor="middle" font-family="Segoe UI, Arial, sans-serif" font-size="10" fill="#cccccc">Threats</text>
    </g>
    
    <!-- Geographic Map Simulation -->
    <g transform="translate(350, 60)">
      <rect x="0" y="0" width="120" height="80" rx="4" fill="#0d47a1" stroke="#1976d2" stroke-width="1"/>
      <circle cx="30" cy="25" r="3" fill="#f44336"/>
      <circle cx="80" cy="40" r="2" fill="#ff9800"/>
      <circle cx="60" cy="60" r="2" fill="#ffc107"/>
      <circle cx="90" cy="20" r="1" fill="#4caf50"/>
      <text x="60" y="95" text-anchor="middle" font-family="Segoe UI, Arial, sans-serif" font-size="10" fill="#cccccc">Global Threats</text>
    </g>
    
    <!-- Metrics -->
    <g transform="translate(500, 60)">
      <text x="0" y="15" font-family="Segoe UI, Arial, sans-serif" font-size="20" font-weight="bold" fill="#f44336">24</text>
      <text x="0" y="30" font-family="Segoe UI, Arial, sans-serif" font-size="10" fill="#cccccc">Active Alerts</text>
      
      <text x="0" y="55" font-family="Segoe UI, Arial, sans-serif" font-size="20" font-weight="bold" fill="#4caf50">1.2M</text>
      <text x="0" y="70" font-family="Segoe UI, Arial, sans-serif" font-size="10" fill="#cccccc">Events Today</text>
    </g>
  </g>
  
  <!-- Footer -->
  <text x="600" y="610" text-anchor="middle" font-family="Segoe UI, Arial, sans-serif" font-size="14" fill="#64b5f6" opacity="0.8">
    Real-time Security Intelligence • July 2025 • github.com/letisiapangataa
  </text>
</svg>
