<!-- filepath: c:\Users\lpangataa\OneDrive - Microsoft\Desktop\letisiapangataa.github.io\public\images\cybersecurity-trends-august-2025.svg -->
<svg width="480" height="240" viewBox="0 0 480 240" fill="none" xmlns="http://www.w3.org/2000/svg">
  <rect width="480" height="240" rx="24" fill="#F3F6FB"/>
  <!-- Shield for cybersecurity -->
  <path d="M120 60 Q120 160 240 200 Q360 160 360 60 Q240 20 120 60 Z" fill="#0078D4" opacity="0.13"/>
  <path d="M140 75 Q140 145 240 180 Q340 145 340 75 Q240 45 140 75 Z" fill="#0078D4"/>
  <!-- AI brain circuit -->
  <ellipse cx="320" cy="90" rx="38" ry="28" fill="#fff" stroke="#43B97F" stroke-width="3"/>
  <path d="M320 62 v56" stroke="#43B97F" stroke-width="2"/>
  <path d="M292 90 h56" stroke="#43B97F" stroke-width="2"/>
  <circle cx="320" cy="62" r="3" fill="#FFD700"/>
  <circle cx="320" cy="146" r="3" fill="#FFD700"/>
  <circle cx="292" cy="90" r="3" fill="#FFD700"/>
  <circle cx="348" cy="90" r="3" fill="#FFD700"/>
  <!-- Cloud and lock for cloud security -->
  <ellipse cx="110" cy="170" rx="24" ry="14" fill="#fff" stroke="#0078D4" stroke-width="2"/>
  <ellipse cx="130" cy="170" rx="12" ry="8" fill="#fff" stroke="#0078D4" stroke-width="2"/>
  <rect x="115" y="160" width="18" height="18" rx="4" fill="#fff" stroke="#43B97F" stroke-width="2"/>
  <circle cx="124" cy="169" r="3" fill="#43B97F"/>
  <!-- Ransomware icon (exclamation in triangle) -->
  <polygon points="400,170 420,205 380,205" fill="#FFD700" stroke="#0078D4" stroke-width="2"/>
  <rect x="397" y="185" width="6" height="13" rx="2" fill="#0078D4"/>
  <circle cx="400" cy="202" r="3" fill="#0078D4"/>
  <!-- Title text -->
  <text x="32" y="220" font-size="26" font-family="Segoe UI, Arial, sans-serif" fill="#0078D4" font-weight="bold">
    Cybersecurity Trends: August 2025
  </text>
</svg>