<!-- filepath: c:\Users\lpangataa\OneDrive - Microsoft\Desktop\letisiapangataa.github.io\public\images\dp-600-fabric-analytics-guide.svg -->
<svg width="480" height="240" viewBox="0 0 480 240" fill="none" xmlns="http://www.w3.org/2000/svg">
  <rect width="480" height="240" rx="24" fill="#F3F6FB"/>
  <!-- Fabric-style hexagon -->
  <polygon points="80,120 120,60 200,60 240,120 200,180 120,180" fill="#0078D4" opacity="0.15"/>
  <polygon points="100,120 130,75 190,75 220,120 190,165 130,165" fill="#0078D4"/>
  <!-- Analytics chart -->
  <rect x="260" y="60" width="160" height="100" rx="12" fill="#fff" stroke="#0078D4" stroke-width="2"/>
  <polyline points="280,140 310,110 340,130 370,90 400,120" fill="none" stroke="#43B97F" stroke-width="4"/>
  <circle cx="280" cy="140" r="5" fill="#43B97F"/>
  <circle cx="310" cy="110" r="5" fill="#43B97F"/>
  <circle cx="340" cy="130" r="5" fill="#43B97F"/>
  <circle cx="370" cy="90" r="5" fill="#43B97F"/>
  <circle cx="400" cy="120" r="5" fill="#43B97F"/>
  <!-- Certification badge -->
  <g>
    <circle cx="400" cy="60" r="28" fill="#FFD700" stroke="#0078D4" stroke-width="3"/>
    <text x="400" y="66" text-anchor="middle" font-size="18" font-family="Segoe UI, Arial, sans-serif" fill="#0078D4" font-weight="bold">DP-600</text>
    <text x="400" y="84" text-anchor="middle" font-size="10" font-family="Segoe UI, Arial, sans-serif" fill="#333">CERTIFIED</text>
  </g>
  <!-- Title text -->
  <text x="40" y="220" font-size="28" font-family="Segoe UI, Arial, sans-serif" fill="#0078D4" font-weight="bold">
    Microsoft Fabric Analytics Guide
  </text>
</svg>