<!-- filepath: c:\Users\lpangataa\OneDrive - Microsoft\Desktop\letisiapangataa.github.io\public\images\introducing-microsoft-fabric.svg -->
<svg width="480" height="240" viewBox="0 0 480 240" fill="none" xmlns="http://www.w3.org/2000/svg">
  <rect width="480" height="240" rx="24" fill="#F3F6FB"/>
  <!-- Fabric hexagon motif -->
  <polygon points="80,120 120,60 200,60 240,120 200,180 120,180" fill="#0078D4" opacity="0.13"/>
  <polygon points="100,120 130,75 190,75 220,120 190,165 130,165" fill="#0078D4"/>
  <!-- Data pipeline (arrows) -->
  <rect x="260" y="60" width="160" height="100" rx="12" fill="#fff" stroke="#0078D4" stroke-width="2"/>
  <polyline points="280,140 300,110 320,130 340,90 360,120 380,80 400,120" fill="none" stroke="#43B97F" stroke-width="4"/>
  <circle cx="280" cy="140" r="5" fill="#43B97F"/>
  <circle cx="300" cy="110" r="5" fill="#43B97F"/>
  <circle cx="320" cy="130" r="5" fill="#43B97F"/>
  <circle cx="340" cy="90" r="5" fill="#43B97F"/>
  <circle cx="360" cy="120" r="5" fill="#43B97F"/>
  <circle cx="380" cy="80" r="5" fill="#43B97F"/>
  <circle cx="400" cy="120" r="5" fill="#43B97F"/>
  <!-- Power BI chart icon -->
  <rect x="320" y="160" width="12" height="30" rx="3" fill="#FFD700"/>
  <rect x="338" y="170" width="12" height="20" rx="3" fill="#43B97F"/>
  <rect x="356" y="180" width="12" height="10" rx="3" fill="#0078D4"/>
  <!-- Title text -->
  <text x="32" y="220" font-size="28" font-family="Segoe UI, Arial, sans-serif" fill="#0078D4" font-weight="bold">
    Introducing Microsoft Fabric
  </text>
</svg>