<!-- filepath: c:\Users\lpangataa\OneDrive - Microsoft\Desktop\letisiapangataa.github.io\public\images\microsoft-fabric-intermediate-guide.svg -->
<svg width="480" height="240" viewBox="0 0 480 240" fill="none" xmlns="http://www.w3.org/2000/svg">
  <rect width="480" height="240" rx="24" fill="#F3F6FB"/>
  <!-- Fabric hexagon motif -->
  <polygon points="80,120 120,60 200,60 240,120 200,180 120,180" fill="#0078D4" opacity="0.13"/>
  <polygon points="100,120 130,75 190,75 220,120 190,165 130,165" fill="#0078D4"/>
  <!-- IoT device icon -->
  <rect x="270" y="60" width="40" height="40" rx="8" fill="#fff" stroke="#43B97F" stroke-width="3"/>
  <circle cx="290" cy="80" r="8" fill="#43B97F"/>
  <rect x="285" y="95" width="10" height="5" rx="2" fill="#43B97F"/>
  <!-- Data pipeline arrows -->
  <polyline points="310,80 340,100 370,80" fill="none" stroke="#0078D4" stroke-width="4" marker-end="url(#arrowhead)"/>
  <defs>
    <marker id="arrowhead" markerWidth="8" markerHeight="8" refX="6" refY="4" orient="auto" markerUnits="strokeWidth">
      <polygon points="0 0, 8 4, 0 8" fill="#0078D4"/>
    </marker>
  </defs>
  <!-- Lakehouse icon -->
  <rect x="350" y="110" width="60" height="40" rx="8" fill="#fff" stroke="#FFD700" stroke-width="3"/>
  <ellipse cx="380" cy="130" rx="18" ry="8" fill="#FFD700" opacity="0.2"/>
  <!-- Notebook icon -->
  <rect x="120" y="170" width="60" height="40" rx="8" fill="#fff" stroke="#0078D4" stroke-width="2"/>
  <line x1="130" y1="180" x2="170" y2="180" stroke="#0078D4" stroke-width="2"/>
  <line x1="130" y1="190" x2="170" y2="190" stroke="#0078D4" stroke-width="2"/>
  <!-- Power BI chart icon -->
  <rect x="400" y="170" width="12" height="30" rx="3" fill="#FFD700"/>
  <rect x="418" y="180" width="12" height="20" rx="3" fill="#43B97F"/>
  <rect x="436" y="190" width="12" height="10" rx="3" fill="#0078D4"/>
  <!-- Title text -->
  <text x="32" y="220" font-size="26" font-family="Segoe UI, Arial, sans-serif" fill="#0078D4" font-weight="bold">
    Microsoft Fabric: Intermediate Guide
  </text>
</svg>