<svg width="1200" height="630" viewBox="0 0 1200 630" xmlns="http://www.w3.org/2000/svg">
  <defs>
    <!-- Gradient definitions -->
    <linearGradient id="bgGradient" x1="0%" y1="0%" x2="100%" y2="100%">
      <stop offset="0%" style="stop-color:#FFC300;stop-opacity:1" />
      <stop offset="50%" style="stop-color:#FF8C00;stop-opacity:1" />
      <stop offset="100%" style="stop-color:#FF6B35;stop-opacity:1" />
    </linearGradient>
    
    <linearGradient id="chartGradient" x1="0%" y1="0%" x2="100%" y2="100%">
      <stop offset="0%" style="stop-color:#0078d4;stop-opacity:1" />
      <stop offset="100%" style="stop-color:#40e0d0;stop-opacity:1" />
    </linearGradient>
    
    <linearGradient id="cardGradient" x1="0%" y1="0%" x2="100%" y2="100%">
      <stop offset="0%" style="stop-color:#ffffff;stop-opacity:0.95" />
      <stop offset="100%" style="stop-color:#f8f9fa;stop-opacity:0.9" />
    </linearGradient>
    
    <linearGradient id="powerBIGradient" x1="0%" y1="0%" x2="100%" y2="100%">
      <stop offset="0%" style="stop-color:#FFC300;stop-opacity:1" />
      <stop offset="50%" style="stop-color:#FFAB00;stop-opacity:1" />
      <stop offset="100%" style="stop-color:#FF8C00;stop-opacity:1" />
    </linearGradient>
    
    <!-- Glow filter -->
    <filter id="glow">
      <feGaussianBlur stdDeviation="4" result="coloredBlur"/>
      <feMerge> 
        <feMergeNode in="coloredBlur"/>
        <feMergeNode in="SourceGraphic"/>
      </feMerge>
    </filter>
    
    <!-- Drop shadow filter -->
    <filter id="dropshadow" x="-20%" y="-20%" width="140%" height="140%">
      <feGaussianBlur in="SourceAlpha" stdDeviation="3"/>
      <feOffset dx="2" dy="2" result="offset"/>
      <feComponentTransfer>
        <feFuncA type="linear" slope="0.4"/>
      </feComponentTransfer>
      <feMerge> 
        <feMergeNode/>
        <feMergeNode in="SourceGraphic"/>
      </feMerge>
    </filter>
    
    <!-- Pattern for data visualization -->
    <pattern id="dataPattern" x="0" y="0" width="20" height="20" patternUnits="userSpaceOnUse">
      <circle cx="10" cy="10" r="2" fill="rgba(255,255,255,0.3)"/>
    </pattern>
  </defs>
  
  <!-- Background -->
  <rect width="1200" height="630" fill="url(#bgGradient)"/>
  
  <!-- Decorative background pattern -->
  <g opacity="0.1">
    <rect width="1200" height="630" fill="url(#dataPattern)"/>
  </g>
  
  <!-- Power BI Logo-inspired icon (left side) -->
  <g transform="translate(100, 150)">
    <!-- Main Power BI cube structure -->
    <g filter="url(#dropshadow)">
      <!-- Back face -->
      <path d="M 40 80 L 120 40 L 120 160 L 40 200 Z" fill="#FF8C00" opacity="0.8"/>
      <!-- Right face -->
      <path d="M 120 40 L 160 80 L 160 200 L 120 160 Z" fill="#FFC300" opacity="0.9"/>
      <!-- Top face -->
      <path d="M 40 80 L 80 40 L 160 80 L 120 40 Z" fill="url(#powerBIGradient)"/>
      <!-- Front face -->
      <path d="M 40 80 L 80 40 L 80 160 L 40 200 Z" fill="#FFAB00"/>
      <!-- Bottom face -->
      <path d="M 40 200 L 80 160 L 160 200 L 120 160 Z" fill="#FF6B35" opacity="0.7"/>
      <!-- Left face -->
      <path d="M 80 40 L 80 160 L 160 200 L 160 80 Z" fill="url(#powerBIGradient)"/>
    </g>
    
    <!-- Power BI symbol overlay -->
    <g transform="translate(100, 120)" fill="white" opacity="0.9">
      <!-- Stylized "P" -->
      <rect x="-15" y="-30" width="8" height="60" rx="2"/>
      <rect x="-7" y="-30" width="20" height="8" rx="4"/>
      <rect x="-7" y="-8" width="15" height="8" rx="4"/>
      
      <!-- "BI" representation with chart elements -->
      <rect x="20" y="-20" width="6" height="40" rx="1"/>
      <rect x="30" y="-15" width="6" height="30" rx="1"/>
      <rect x="40" y="-25" width="6" height="50" rx="1"/>
    </g>
  </g>
  
  <!-- Dashboard visualization (center) -->
  <g transform="translate(350, 180)">
    <!-- Dashboard container -->
    <rect x="0" y="0" width="400" height="280" rx="15" fill="url(#cardGradient)" filter="url(#dropshadow)"/>
    
    <!-- KPI Cards at top -->
    <g transform="translate(20, 20)">
      <!-- Revenue KPI -->
      <rect x="0" y="0" width="110" height="60" rx="8" fill="#0078d4" opacity="0.1"/>
      <text x="55" y="20" font-family="Segoe UI, Arial, sans-serif" font-size="12" text-anchor="middle" fill="#0078d4" font-weight="bold">Revenue</text>
      <text x="55" y="40" font-family="Segoe UI, Arial, sans-serif" font-size="18" text-anchor="middle" fill="#0078d4" font-weight="bold">$2.4M</text>
      <text x="55" y="52" font-family="Segoe UI, Arial, sans-serif" font-size="10" text-anchor="middle" fill="#00b04f">↗ +12.5%</text>
      
      <!-- Orders KPI -->
      <rect x="130" y="0" width="110" height="60" rx="8" fill="#40e0d0" opacity="0.1"/>
      <text x="185" y="20" font-family="Segoe UI, Arial, sans-serif" font-size="12" text-anchor="middle" fill="#40e0d0" font-weight="bold">Orders</text>
      <text x="185" y="40" font-family="Segoe UI, Arial, sans-serif" font-size="18" text-anchor="middle" fill="#40e0d0" font-weight="bold">1,847</text>
      <text x="185" y="52" font-family="Segoe UI, Arial, sans-serif" font-size="10" text-anchor="middle" fill="#00b04f">↗ +8.3%</text>
      
      <!-- Customers KPI -->
      <rect x="260" y="0" width="110" height="60" rx="8" fill="#FFC300" opacity="0.1"/>
      <text x="315" y="20" font-family="Segoe UI, Arial, sans-serif" font-size="12" text-anchor="middle" fill="#FF8C00" font-weight="bold">Customers</text>
      <text x="315" y="40" font-family="Segoe UI, Arial, sans-serif" font-size="18" text-anchor="middle" fill="#FF8C00" font-weight="bold">426</text>
      <text x="315" y="52" font-family="Segoe UI, Arial, sans-serif" font-size="10" text-anchor="middle" fill="#00b04f">↗ +5.1%</text>
    </g>
    
    <!-- Bar Chart -->
    <g transform="translate(20, 100)">
      <text x="0" y="-5" font-family="Segoe UI, Arial, sans-serif" font-size="14" fill="#333" font-weight="bold">Sales by Category</text>
      
      <!-- Chart bars -->
      <rect x="0" y="10" width="30" height="80" fill="url(#chartGradient)" rx="2"/>
      <rect x="40" y="30" width="30" height="60" fill="url(#chartGradient)" rx="2"/>
      <rect x="80" y="20" width="30" height="70" fill="url(#chartGradient)" rx="2"/>
      <rect x="120" y="40" width="30" height="50" fill="url(#chartGradient)" rx="2"/>
      <rect x="160" y="15" width="30" height="75" fill="url(#chartGradient)" rx="2"/>
      
      <!-- Chart labels -->
      <text x="15" y="105" font-family="Segoe UI, Arial, sans-serif" font-size="8" text-anchor="middle" fill="#666">Tech</text>
      <text x="55" y="105" font-family="Segoe UI, Arial, sans-serif" font-size="8" text-anchor="middle" fill="#666">Home</text>
      <text x="95" y="105" font-family="Segoe UI, Arial, sans-serif" font-size="8" text-anchor="middle" fill="#666">Sports</text>
      <text x="135" y="105" font-family="Segoe UI, Arial, sans-serif" font-size="8" text-anchor="middle" fill="#666">Books</text>
      <text x="175" y="105" font-family="Segoe UI, Arial, sans-serif" font-size="8" text-anchor="middle" fill="#666">Music</text>
    </g>
    
    <!-- Line Chart -->
    <g transform="translate(220, 100)">
      <text x="0" y="-5" font-family="Segoe UI, Arial, sans-serif" font-size="14" fill="#333" font-weight="bold">Revenue Trend</text>
      
      <!-- Chart background -->
      <rect x="0" y="10" width="160" height="90" fill="none" stroke="#eee" stroke-width="1"/>
      
      <!-- Grid lines -->
      <g stroke="#f0f0f0" stroke-width="0.5">
        <line x1="0" y1="30" x2="160" y2="30"/>
        <line x1="0" y1="50" x2="160" y2="50"/>
        <line x1="0" y1="70" x2="160" y2="70"/>
        <line x1="0" y1="90" x2="160" y2="90"/>
      </g>
      
      <!-- Line chart path -->
      <path d="M 0 80 L 20 70 L 40 65 L 60 55 L 80 50 L 100 45 L 120 40 L 140 35 L 160 30" 
            stroke="#0078d4" stroke-width="3" fill="none"/>
      
      <!-- Data points -->
      <g fill="#0078d4">
        <circle cx="0" cy="80" r="3"/>
        <circle cx="20" cy="70" r="3"/>
        <circle cx="40" cy="65" r="3"/>
        <circle cx="60" cy="55" r="3"/>
        <circle cx="80" cy="50" r="3"/>
        <circle cx="100" cy="45" r="3"/>
        <circle cx="120" cy="40" r="3"/>
        <circle cx="140" cy="35" r="3"/>
        <circle cx="160" cy="30" r="3"/>
      </g>
      
      <!-- Area fill under line -->
      <path d="M 0 80 L 20 70 L 40 65 L 60 55 L 80 50 L 100 45 L 120 40 L 140 35 L 160 30 L 160 100 L 0 100 Z" 
            fill="url(#chartGradient)" opacity="0.2"/>
    </g>
    
    <!-- Pie Chart -->
    <g transform="translate(50, 200)">
      <text x="40" y="-5" font-family="Segoe UI, Arial, sans-serif" font-size="14" fill="#333" font-weight="bold" text-anchor="middle">Market Share</text>
      
      <!-- Pie slices -->
      <g transform="translate(40, 30)">
        <!-- Slice 1 (40%) -->
        <path d="M 0 0 L 0 -25 A 25 25 0 0 1 17.68 -17.68 Z" fill="#0078d4"/>
        <!-- Slice 2 (30%) -->
        <path d="M 0 0 L 17.68 -17.68 A 25 25 0 0 1 25 0 Z" fill="#40e0d0"/>
        <!-- Slice 3 (20%) -->
        <path d="M 0 0 L 25 0 A 25 25 0 0 1 7.65 23.78 Z" fill="#FFC300"/>
        <!-- Slice 4 (10%) -->
        <path d="M 0 0 L 7.65 23.78 A 25 25 0 0 1 0 -25 Z" fill="#FF6B35"/>
      </g>
      
      <!-- Legend -->
      <g transform="translate(80, 15)" font-family="Segoe UI, Arial, sans-serif" font-size="10" fill="#666">
        <rect x="0" y="0" width="8" height="8" fill="#0078d4"/>
        <text x="12" y="7">North (40%)</text>
        <rect x="0" y="15" width="8" height="8" fill="#40e0d0"/>
        <text x="12" y="22">South (30%)</text>
        <rect x="0" y="30" width="8" height="8" fill="#FFC300"/>
        <text x="12" y="37">East (20%)</text>
        <rect x="0" y="45" width="8" height="8" fill="#FF6B35"/>
        <text x="12" y="52">West (10%)</text>
      </g>
    </g>
  </g>
  
  <!-- Title and content (right side) -->
  <g transform="translate(800, 100)">
    <text x="0" y="0" font-family="Segoe UI, Arial, sans-serif" font-size="48" font-weight="bold" fill="white" filter="url(#dropshadow)">
      Power BI
    </text>
    <text x="0" y="50" font-family="Segoe UI, Arial, sans-serif" font-size="32" font-weight="300" fill="#fff8dc">
      for Beginners
    </text>
    
    <!-- Subtitle -->
    <text x="0" y="100" font-family="Segoe UI, Arial, sans-serif" font-size="20" fill="#fffacd">
      Data Visualization &amp; Analytics Guide
    </text>
    
    <!-- Key features -->
    <g transform="translate(0, 140)" font-family="Segoe UI, Arial, sans-serif" font-size="16" fill="#fff8dc">
      <text x="0" y="20">✓ Drag-and-drop interface</text>
      <text x="0" y="45">✓ Real-world DAX examples</text>
      <text x="0" y="70">✓ Microsoft ecosystem integration</text>
      <text x="0" y="95">✓ Enterprise security features</text>
    </g>
    
    <!-- Microsoft experience badge -->
    <g transform="translate(0, 280)">
      <rect x="0" y="0" width="200" height="35" rx="17" fill="rgba(255,255,255,0.2)" stroke="white" stroke-width="1"/>
      <text x="100" y="23" font-family="Segoe UI, Arial, sans-serif" font-size="12" font-weight="bold" 
            text-anchor="middle" fill="white">MICROSOFT EXPERIENCE</text>
    </g>
  </g>
  
  <!-- Data flow arrows and connections -->
  <g opacity="0.6">
    <defs>
      <marker id="arrowhead" markerWidth="10" markerHeight="7" 
              refX="0" refY="3.5" orient="auto">
        <polygon points="0 0, 10 3.5, 0 7" fill="white"/>
      </marker>
    </defs>
    
    <!-- Flow from logo to dashboard -->
    <path d="M 280 290 Q 320 280 350 290" stroke="white" stroke-width="2" fill="none" 
          marker-end="url(#arrowhead)" opacity="0.8"/>
    
    <!-- Flow from dashboard to insights -->
    <path d="M 750 320 Q 780 310 800 320" stroke="white" stroke-width="2" fill="none" 
          marker-end="url(#arrowhead)" opacity="0.8"/>
  </g>
  
  <!-- Decorative data elements -->
  <g opacity="0.3">
    <!-- Data source icons -->
    <g transform="translate(50, 400)">
      <!-- Excel icon -->
      <rect x="0" y="0" width="25" height="30" rx="3" fill="white"/>
      <rect x="3" y="8" width="19" height="2" fill="#107C41"/>
      <rect x="3" y="12" width="19" height="2" fill="#107C41"/>
      <rect x="3" y="16" width="19" height="2" fill="#107C41"/>
      <text x="12.5" y="25" font-family="Arial" font-size="8" text-anchor="middle" fill="#107C41" font-weight="bold">XL</text>
    </g>
    
    <g transform="translate(50, 450)">
      <!-- Database icon -->
      <ellipse cx="12.5" cy="5" rx="12" ry="4" fill="white"/>
      <rect x="0.5" y="5" width="24" height="15" fill="white"/>
      <ellipse cx="12.5" cy="20" rx="12" ry="4" fill="white"/>
      <ellipse cx="12.5" cy="15" rx="12" ry="4" fill="none" stroke="#666" stroke-width="1"/>
      <ellipse cx="12.5" cy="10" rx="12" ry="4" fill="none" stroke="#666" stroke-width="1"/>
    </g>
    
    <g transform="translate(50, 500)">
      <!-- Cloud icon -->
      <path d="M 8 8 Q 4 4 8 4 Q 12 2 16 4 Q 20 3 22 6 Q 24 8 20 10 Q 12 12 8 8 Z" fill="white"/>
    </g>
  </g>
  
  <!-- Floating data insights -->
  <g opacity="0.4">
    <!-- Insight bubbles -->
    <circle cx="950" cy="450" r="15" fill="rgba(255,255,255,0.3)" stroke="white" stroke-width="1"/>
    <text x="950" y="455" font-family="Segoe UI" font-size="12" text-anchor="middle" fill="white" font-weight="bold">📊</text>
    
    <circle cx="1050" cy="400" r="12" fill="rgba(255,255,255,0.3)" stroke="white" stroke-width="1"/>
    <text x="1050" y="405" font-family="Segoe UI" font-size="10" text-anchor="middle" fill="white" font-weight="bold">📈</text>
    
    <circle cx="900" cy="500" r="10" fill="rgba(255,255,255,0.3)" stroke="white" stroke-width="1"/>
    <text x="900" y="505" font-family="Segoe UI" font-size="8" text-anchor="middle" fill="white" font-weight="bold">💡</text>
  </g>
  
  <!-- Background decorative elements -->
  <g opacity="0.1">
    <!-- Grid overlay -->
    <defs>
      <pattern id="grid" width="50" height="50" patternUnits="userSpaceOnUse">
        <path d="M 50 0 L 0 0 0 50" fill="none" stroke="white" stroke-width="1"/>
      </pattern>
    </defs>
    <rect width="1200" height="630" fill="url(#grid)"/>
  </g>
  
  <!-- Beginner-friendly badge -->
  <g transform="translate(50, 50)">
    <rect x="0" y="0" width="140" height="35" rx="17" fill="#00ff88" opacity="0.9"/>
    <text x="70" y="23" font-family="Segoe UI, Arial, sans-serif" font-size="14" font-weight="bold" 
          text-anchor="middle" fill="white">BEGINNER FRIENDLY</text>
  </g>
  
  <!-- Business Intelligence badge -->
  <g transform="translate(980, 50)">
    <rect x="0" y="0" width="160" height="35" rx="17" fill="rgba(255,255,255,0.2)" stroke="white" stroke-width="1"/>
    <text x="80" y="23" font-family="Segoe UI, Arial, sans-serif" font-size="14" font-weight="bold" 
          text-anchor="middle" fill="white">BUSINESS INTELLIGENCE</text>
  </g>
</svg>
